<svg xmlns="http://www.w3.org/2000/svg" width="24" height="24" viewBox="0 0 24 24">
    <path fill="#333" fill-rule="evenodd" d="M4.797 16.686a10.968 10.968 0 0 1 3.702-2.117 5 5 0 1 1 7.003 0 10.969 10.969 0 0 1 3.701 2.117l.457-.263V7.577L12 3.155 4.34 7.577v8.846l.457.263zm1.857 1.073L12 20.845l5.346-3.086A8.96 8.96 0 0 0 12 16a8.96 8.96 0 0 0-5.346 1.759zM12.5 1.134l8.66 5a1 1 0 0 1 .5.866v10a1 1 0 0 1-.5.866l-8.66 5a1 1 0 0 1-1 0l-8.66-5a1 1 0 0 1-.5-.866V7a1 1 0 0 1 .5-.866l8.66-5a1 1 0 0 1 1 0zM12 14a3 3 0 1 0 0-6 3 3 0 0 0 0 6z"/>
</svg>
